<svg xmlns="http://www.w3.org/2000/svg" width="250" height="250" fill="none"><g clip-path="url(#a)"><rect width="250" height="250" fill="#fff" rx="125"/><path fill="#000" stroke="#231F20" stroke-miterlimit="10" d="M252.5-2.5h-255v255h255v-255Z"/><path fill="#fff" d="M184.99 85.57a36.26 36.26 0 0 0-3.11-5.08l-.03-.05c-5.27-7.75-10.6-11.76-14.15-13.77h-.02c-1.71-1.08-6.3-2.94-9.16-4.04a36.78 36.78 0 0 1-4.44-2.17c-.42-.28-.75-.5-.9-.62l-.1-.08a26.67 26.67 0 0 1-2.14-1.86l-.03-.03c-1.81-1.56-4.55-4.93-5.97-6.72a257.3 257.3 0 0 0-17.74-20.67l-.27-.28a65 65 0 0 0-6.84-6.3 75 75 0 0 0-8.77-6.36l-.02-.02-.51-.3-.44-.24-.01-.01s-.84 10.9.88 23c.03.24.06.65.02.91 0 .04 0 .07-.02.1-.53 2.7-3.2 2.26-4.56 1.83l-.05-.01-.1-.03a8.98 8.98 0 0 1-1.29-.67l-.04-.02-5.27-3.43-3.3-2.13-9.79-6.18 1.49 2.89 6.02 12.24.05.1.1.19.15.32.04.08.26.53 1.08 2.26v.01l.03.04c0 .03.02.06.04.1l.03.07c.17.4.57 1.36 1.04 2.66l.02.05c1.13 3.14 2.64 8.22 2.4 12.3v.12l-.01.06v.05l-.02.13v.08l-.1.75-.04.24c-.27 1.63-.99 4.4-2.86 7l-.02.03c-.2.32-.43.64-.67.98l-.07.1-.86 1.16-.96 1.31-.58.8a140.87 140.87 0 0 0-2.54 3.6l-.19.3-.05.07-.05.07c-.96 1.49-2.1 3.3-3.04 4.93v.01l-.02.03-.02.02c-.09.13-.36.57-.65 1.19l-.01.02c-.14.29-.27.6-.4.96l-.05.18c-.12.4-.24.89-.35 1.44v.05l-.05.26v.02c-.26 1.56-.4 3.65-.2 6.38l.02.42c.4 4.88.92 11.34 1.06 13.73.11 2.05-.07 3.51-.27 4.45 0 0-.3 1.1-.7 1.81l-.03.03-.02.05c-1.59 2.67-8.37 14.16-9.84 17.44a8.52 8.52 0 0 0-.9 3.16v.04c0 .19.13.88 1.31 1.57l.03.01c1.48.75 4.3 2.47 5.7 5.27a11.73 11.73 0 0 0 6.34 5.68h.03l.04.02.23.07h.02a31.9 31.9 0 0 1 3.75 1.4c.64.3 1.25.64 1.86.99a509.5 509.5 0 0 1 12.9 7.59 6.9 6.9 0 0 0 4.05.88 4.94 4.94 0 0 0 3.17-1.38 33.15 33.15 0 0 0 2.96-3.26 5.7 5.7 0 0 1 2.3-1.83l.1-.03c.44-.11.9-.17 1.35-.18a12.08 12.08 0 0 1 6.1 1.42c.63.3 1.17.64 1.63 1.01l.02.02c2.22 1.82 2.74 4.45 2.64 6.76a12.82 12.82 0 0 1-1.42 5.3v.02l-.03.04-.7 1.23.37-.6-6.6 12.21-.01.01c-.35.54-11.39 17.9-14.86 57.07a22.26 22.26 0 0 1-.1 1.06c-.97-40.05 14.52-62.38 19-70.26a14.92 14.92 0 0 0 2-6.43v-.16c.01-.45-.02-.69-.02-.69v-.01c0-.2-.02-.36-.04-.5v-.07a3.8 3.8 0 0 0-.13-.63 3 3 0 0 0-.56-1.1l-.02-.01v-.01c-1.28-1.75-3.92-2.58-5.1-2.87l-.17-.04-.23-.06-.14-.03h-.05a3.49 3.49 0 0 0-3.4 1.17l-.04.04-2.8 3.2c-.06.06-.45.46-.78.72l-.15.1a8.75 8.75 0 0 1-3.34 1.34h-.01c-.38.06-.77.1-1.18.11h-.04c-.25 0-.5 0-.76-.02l-.74-.09c-.67-.1-1.36-.3-2.1-.57l-.02-.01h-.01l-1.02-.47-.05-.02-.2-.1a12.1 12.1 0 0 1-1.23-.72l-1.5-.96-.7-.43c-.98-.6-1.93-1.18-2.86-1.72l-.1-.07-.33-.19-.37-.21a90.85 90.85 0 0 0-2.66-1.5l-.07-.05-.12-.06-.3-.17-.44-.24-.07-.04-.72-.38-1.36-.73-.36-.19a147.66 147.66 0 0 0-2.77-1.38 38.7 38.7 0 0 0-3.34-1.33c-4.52-1.59-5.86-4.5-5.86-4.5a11.04 11.04 0 0 0-5.3-6h-.02l-.17-.08a22.51 22.51 0 0 1-1.1-.59 4.03 4.03 0 0 1-1.9-2.92V138c-.04-.72.05-1.27.05-1.27 0-2.8 10.27-19.37 11.02-20.95.76-1.6.7-3.62.7-3.62s-.85-10.43-1.23-17.15v-.15l-.04-.64c-.16-4.53 1.04-7.38 1.54-8.37l.18-.33.02-.03.01-.03h.01a72.12 72.12 0 0 1 2.72-4.43l.7-1.05 1.36-2 .14-.2.14-.2.11-.16c.8-1.14 1.57-2.19 2.22-3.07l.1-.14.5-.67.5-.65c.35-.48.66-.94.94-1.38l.01-.02.06-.1a24.6 24.6 0 0 0 1.89-3.51v-.03c2.46-5.98-1.43-15.31-1.7-15.98a46.54 46.54 0 0 0-1.4-3.26l-.17-.36-5.06-10.72a2.96 2.96 0 0 0-.03-.07c-2.43-5.5-4.84-11.15-4.84-11.15 3.46.76 16.56 8.95 21.22 12.32 2.25 1.63 3.39 2.04 3.96 2.02h.09c.2-.06.2-.33.2-.33a108.54 108.54 0 0 1-.8-15.8v-.11c-.04-6.02.76-11.55.8-11.89l.01-.01v-.01a47.75 47.75 0 0 1 8.36 4.88l.1.07.01.01c12.77 9.03 26.38 26.62 31.23 33.2 6 8.14 7.64 7.92 19.36 13.15 11.53 5.16 17.32 21.26 17.5 21.76h-.01Z"/><path fill="#fff" d="m92.5 74.65-.5.66-.1.13-4.42-5.68a192.12 192.12 0 0 0-6.53-7.39 77.78 77.78 0 0 0 2.83 10c3.58 3.43 5.94 6.1 5.94 6.1l-.12.15-.13.2-.14.18a134.04 134.04 0 0 0-5.1-5.44c1.96 5.07 3.66 7.3 3.75 7.42L87.3 82l-.32.49c-15.32-11.64-20.13-7.09-21.52-4.46 4.66-9.9 21.44 3.66 21.84 3.97-1.8-2.3-3.55-7.08-4.47-9.82l-.15-.15-.5-.48C71.04 60.94 63.27 58.08 62.5 57.81c6.58 1.86 14.18 7.95 19.67 13.04l.24.22.08.07-.3-.96a106.28 106.28 0 0 1-1.67-8.27c-3.66-3.87-7.42-7.38-10.02-8.59.27.1 3.36 1.23 9.85 7.6-.7-4.44-1.03-7.9-1.08-8.42.41 3.23.9 6.15 1.44 8.77A153.3 153.3 0 0 1 92.5 74.65Zm7.5 83.3a10.57 10.57 0 0 1-.24 1.66l-.02.13v.02a9.7 9.7 0 0 1-1.17 2.93l-.01.01c-.18.3-.37.6-.6.89a16.03 16.03 0 0 0-1.23 2.3c-.07.18-.14.37-.2.58l-.01.02a20.6 20.6 0 0 0-1.13 5.35v.15l-.02.08v.07c-.04.41-.1 1.18-.12 1.78l-.68 5.96-.04.35-.03.4v.01c-.01.22-.38 5.15-.68 7.22l-.04.25v.03c-.32 1.88-.73 3.56-1.27 4.36h-.01c1.02-2.4 1.35-7.96 1.46-11.06v-.01l.18-2.2.6-5.46v-.02c.17-3.3.7-7.84 2.31-10.04 2.68-3.66 2.27-6.21 2.27-6.21l.31.2.28.19.09.06Zm7.5 5.13v7.72c0 .37-.05 2.11-1.03 4.4l-.1.22a254.14 254.14 0 0 0-4.52 10.58l-.02.06-.73 1.91v.02l-.01.02c-.22.51-2.5 5.99-2.9 7.73v.01a.65.65 0 0 0-.05.16v.04c-.09.39-1.35 6.16-1.98 8.28l-.12.39c-.4 1.22-.77 2.23-1.04 2.88.77-2.35 1.89-8.49 2.3-10.85.09-.46.19-.92.32-1.37v-.03l.15-.46.38-1.2a607.9 607.9 0 0 1 3.5-9.74 207.54 207.54 0 0 1 1.58-3.96c0-.03.02-.05.03-.07l.12-.3.17-.43c.66-1.58 1.5-3.6 2.05-4.87a11 11 0 0 0 .7-2.44l.01-.03c.11-.82.11-1.83.11-1.83v-3.17a62.5 62.5 0 0 0-.19-4.25l.2.1.04.01 1 .46.03.01Zm4.99 5.11v-.03c-.13-2.82-1.06-5-1.3-5.53l-.06-.13h-.01c-.34.06-.7.1-1.08.11H110s.58.33 1.14 1.81v.01c.7 1.89 1.38 5.65.83 12.99v.08c.19-1.42.52-4.38.53-8.15v-.17l-.01-1Zm-.66-1.94.01.03v-.03ZM90 152.87s-.9.89-1.27 2.18l-.04.17-.03.08c-.12.37-.6 1.82-.86 2.42l-.03.07v.02c-1.6 3.43-4.85 9.34-5.24 9.67-.5.44 4.68-8.48 5.47-11.82a9.8 9.8 0 0 1 1.19-3.16l.81.37Zm12.15 13.67v.02c-.05.17-.15.46-.37.83l-.44.57v.01c-.1.1-.2.23-.3.38a6.12 6.12 0 0 0-.87 2.08v.02l-.5 1.73-.02.06a35.3 35.3 0 0 1-1.52 4.14l-.08.14a33.23 33.23 0 0 1-.55.98c1.17-2.2 1.88-6.1 1.88-6.1s.38-1.6.96-2.91l.12-.26.14-.26.02-.03a12.77 12.77 0 0 1 .5-.75l.05-.07.09-.12.02-.03a.43.43 0 0 0 .06-.07v-.01l.06-.09c.82-1.45.42-6.8.42-6.8l.67.46c.07 3.2-.15 5.08-.34 6.08Zm.35.96c2.02-2.64 1.62-7.5 1.62-7.5.3.17.58.32.87.46.17 4.91-2.34 6.93-2.49 7.04Zm-5.21-10.78-.33-.16-.48-.24-.07-.04-.77-.38c-.51.2-.98.42-1.43.68a18 18 0 0 0-.03-1.4l-.4-.18s.04.72.06 1.8c-2.98 1.9-4.4 5.06-5.07 7.86a25.64 25.64 0 0 0-4.72 7.25l-.01.02a2.9 2.9 0 0 0-.1.25c-.09.22-.2.57-.33 1v.02l-.23 1.09-.01.11v.01l-.28 2.11v.01c-.4 5.25-2.79 10.33-3.09 10.97a41.28 41.28 0 0 0 2.29-4.52l.27-.66c.8-2.12 1.28-5.4 1.46-6.77v-.04c.01-.18.04-.36.07-.54v-.07c.05-.3.12-.59.2-.89l.02-.06c.9-3.42 3.48-6.61 3.64-6.8v-.02l.47-.57c-.32 2.26-.2 3.95-.2 3.95.08-1.66.29-3.13.59-4.42.92-1.07 1.67-1.8 1.85-1.97l.04-.03a60.35 60.35 0 0 1 2.03-2.03l.05-.05 1.05-1.13c-.07 2.81-.32 5.8-1 6.8 0 0 .7-.49 1.03-3.42.12-1.05.21-2.38.27-3.7 1.27-1.37 3-3.25 3.37-3.74l-.2-.1h-.01Zm-3.44 2.74c-.98 1.06-2.3 2.43-4.06 4.14l-.39.4c1.18-3.33 2.98-5.2 4.45-6.22v1.68Zm.32-.36.03-1.56a7.13 7.13 0 0 1 2.09-.94c-.28.38-.9 1.17-2.12 2.5Z"/></g><defs><clipPath id="a"><rect width="250" height="250" fill="#fff" rx="125"/></clipPath></defs></svg>